<?xml version="1.0" encoding="UTF-8" standalone="no"?>
<!-- Generator: IcoMoon.io -->

<svg
   xmlns:dc="http://purl.org/dc/elements/1.1/"
   xmlns:cc="http://creativecommons.org/ns#"
   xmlns:rdf="http://www.w3.org/1999/02/22-rdf-syntax-ns#"
   xmlns:svg="http://www.w3.org/2000/svg"
   xmlns="http://www.w3.org/2000/svg"
   xmlns:sodipodi="http://sodipodi.sourceforge.net/DTD/sodipodi-0.dtd"
   xmlns:inkscape="http://www.inkscape.org/namespaces/inkscape"
   width="10"
   height="8.8000002"
   viewBox="0 0 10 8.8000002"
   id="svg2"
   version="1.1"
   inkscape:version="0.48.3.1 r9886"
   sodipodi:docname="agenda.svg"
   style="fill:#000000">
  <metadata
     id="metadata73">
    <rdf:RDF>
      <cc:Work
         rdf:about="">
        <dc:format>image/svg+xml</dc:format>
        <dc:type
           rdf:resource="http://purl.org/dc/dcmitype/StillImage" />
      </cc:Work>
    </rdf:RDF>
  </metadata>
  <defs
     id="defs71" />
  <sodipodi:namedview
     pagecolor="#ffffff"
     bordercolor="#666666"
     borderopacity="1"
     objecttolerance="10"
     gridtolerance="10"
     guidetolerance="10"
     inkscape:pageopacity="0"
     inkscape:pageshadow="2"
     inkscape:window-width="1366"
     inkscape:window-height="744"
     id="namedview69"
     showgrid="false"
     inkscape:zoom="45.254834"
     inkscape:cx="2.076058"
     inkscape:cy="5.147338"
     inkscape:window-x="0"
     inkscape:window-y="24"
     inkscape:window-maximized="1"
     inkscape:current-layer="svg2" />
  <g
     id="Layer_1"
     transform="matrix(0.27286774,0,0,0.27286774,0.6612035,0.0257476)" />
  <path
     inkscape:connector-curvature="0"
     style="fill:#4e4e50"
     d="M 3.9356164,3.3001605"
     id="path2992" />
  <path
     inkscape:connector-curvature="0"
     style="fill:#4e4e50"
     d="M 3.9356164,3.3001605"
     id="path2994" />
  <g
     id="g3008"
     transform="matrix(0.19898059,0,0,0.19898059,1.810252,1.2631848)"
     style="fill:#d45500">
    <g
       id="Layer_1-6"
       style="fill:#d45500" />
    <g
       id="calendar_x5F_alt_x5F_fill"
       style="fill:#d45500">
      <g
         id="g2994"
         style="fill:#d45500">
        <path
           id="path2996"
           d="m 26,4 v 2.047 c 0,2.211 -1.789,4 -4,4 -2.211,0 -4,-1.789 -4,-4 V 4 h -4 v 2.047 c 0,2.211 -1.789,4 -4,4 -2.211,0 -4,-1.789 -4,-4 V 4 H 0 V 32 H 32 V 4 H 26 z M 10,28 H 6 v -4 h 4 v 4 z m 0,-8 H 6 v -4 h 4 v 4 z m 8,8 h -4 v -4 h 4 v 4 z m 0,-7.992 h -4 v -4 h 4 v 4 z M 22,28 v -4 h 4 l -4,4 z m 4,-8 h -4 v -4 h 4 v 4 z"
           style="fill:#d45500"
           inkscape:connector-curvature="0" />
        <path
           id="path2998"
           d="M 8,6 V 2 c 0,-1.105 0.895,-2 2,-2 1.105,0 2,0.895 2,2 V 6 C 12,7.105 11.105,8 10,8 8.895,8 8,7.105 8,6 z"
           style="fill:#d45500"
           inkscape:connector-curvature="0" />
        <path
           id="path3000-2"
           d="M 20,6 V 2 c 0,-1.105 0.895,-2 2,-2 1.105,0 2,0.895 2,2 V 6 C 24,7.105 23.105,8 22,8 20.895,8 20,7.105 20,6 z"
           style="fill:#d45500"
           inkscape:connector-curvature="0" />
      </g>
    </g>
  </g>
</svg>
