<?xml version="1.0" encoding="UTF-8" standalone="no"?>
<svg
   xmlns:dc="http://purl.org/dc/elements/1.1/"
   xmlns:cc="http://creativecommons.org/ns#"
   xmlns:rdf="http://www.w3.org/1999/02/22-rdf-syntax-ns#"
   xmlns:svg="http://www.w3.org/2000/svg"
   xmlns="http://www.w3.org/2000/svg"
   xmlns:sodipodi="http://sodipodi.sourceforge.net/DTD/sodipodi-0.dtd"
   xmlns:inkscape="http://www.inkscape.org/namespaces/inkscape"
   version="1.1"
   x="0px"
   y="0px"
   width="32"
   height="32"
   viewBox="0 0 32 32"
   enable-background="new 0 0 512 512"
   xml:space="preserve"
   id="svg2"
   inkscape:version="0.48.3.1 r9886"
   sodipodi:docname="arship-author.svg"><metadata
     id="metadata13"><rdf:RDF><cc:Work
         rdf:about=""><dc:format>image/svg+xml</dc:format><dc:type
           rdf:resource="http://purl.org/dc/dcmitype/StillImage" /></cc:Work></rdf:RDF></metadata><defs
     id="defs11" /><sodipodi:namedview
     pagecolor="#ffffff"
     bordercolor="#666666"
     borderopacity="1"
     objecttolerance="10"
     gridtolerance="10"
     guidetolerance="10"
     inkscape:pageopacity="0"
     inkscape:pageshadow="2"
     inkscape:window-width="1140"
     inkscape:window-height="633"
     id="namedview9"
     showgrid="false"
     inkscape:zoom="5.2149125"
     inkscape:cx="30.214058"
     inkscape:cy="20.026865"
     inkscape:window-x="110"
     inkscape:window-y="52"
     inkscape:window-maximized="0"
     inkscape:current-layer="svg2" /><g
     id="e6c6b53d3c8160b22dad35a0f70d2ea2"
     transform="matrix(0.06121168,0,0,0.06121168,0.42145472,0.38198251)"
     style="fill:#3871c8;fill-opacity:1"><g
       id="g5"
       style="fill:#3871c8;fill-opacity:1" /><path
       display="inline"
       d="m 141.59,322.424 47.981,47.99 -41.64,14.634 -20.976,-20.98 14.635,-41.644 z M 511.5,256 C 511.5,397.107 397.107,511.5 256,511.5 114.893,511.5 0.5,397.107 0.5,256 0.5,114.893 114.893,0.5 256,0.5 397.107,0.5 511.5,114.893 511.5,256 z m -151.308,-33.851 -70.338,-70.341 -152.41,152.402 -30.486,86.764 14.072,14.068 86.759,-30.486 152.403,-152.407 z m 35.177,-82.064 -23.45,-23.45 c -12.896,-12.9 -34,-12.9 -46.899,0 l -11.719,11.719 -0.005,0.004 70.346,70.346 0.005,-0.004 11.719,-11.719 c 12.903,-12.9 12.903,-34 0.003,-46.896 z"
       id="path7"
       inkscape:connector-curvature="0"
       style="display:inline;fill:#3871c8;fill-opacity:1" /></g></svg>