<?xml version="1.0" encoding="UTF-8" standalone="no"?>
<!-- Generator: IcoMoon.io -->

<svg
   xmlns:dc="http://purl.org/dc/elements/1.1/"
   xmlns:cc="http://creativecommons.org/ns#"
   xmlns:rdf="http://www.w3.org/1999/02/22-rdf-syntax-ns#"
   xmlns:svg="http://www.w3.org/2000/svg"
   xmlns="http://www.w3.org/2000/svg"
   xmlns:sodipodi="http://sodipodi.sourceforge.net/DTD/sodipodi-0.dtd"
   xmlns:inkscape="http://www.inkscape.org/namespaces/inkscape"
   width="10"
   height="8.8000002"
   viewBox="0 0 10 8.8000002"
   id="svg2"
   version="1.1"
   inkscape:version="0.48.3.1 r9886"
   sodipodi:docname="karya.svg"
   style="fill:#000000">
  <metadata
     id="metadata73">
    <rdf:RDF>
      <cc:Work
         rdf:about="">
        <dc:format>image/svg+xml</dc:format>
        <dc:type
           rdf:resource="http://purl.org/dc/dcmitype/StillImage" />
      </cc:Work>
    </rdf:RDF>
  </metadata>
  <defs
     id="defs71" />
  <sodipodi:namedview
     pagecolor="#ffffff"
     bordercolor="#666666"
     borderopacity="1"
     objecttolerance="10"
     gridtolerance="10"
     guidetolerance="10"
     inkscape:pageopacity="0"
     inkscape:pageshadow="2"
     inkscape:window-width="701"
     inkscape:window-height="573"
     id="namedview69"
     showgrid="false"
     inkscape:zoom="32"
     inkscape:cx="4.2952253"
     inkscape:cy="3.112631"
     inkscape:window-x="549"
     inkscape:window-y="86"
     inkscape:window-maximized="0"
     inkscape:current-layer="svg2" />
  <g
     id="Layer_1"
     transform="matrix(0.27286774,0,0,0.27286774,0.6612035,0.0257476)" />
  <path
     style="fill:#008000"
     inkscape:connector-curvature="0"
     d="m 8.2594516,6.5738799 -2.3150537,-3.8575002 0,-1.5623853 0.2342205,0 c 0.1288218,0 0.2342212,-0.1053994 0.2342212,-0.2342212 0,-0.12882114 -0.1053994,-0.23422045 -0.2342212,-0.23422045 l -2.3422085,0 c -0.1288212,0 -0.2342205,0.10539931 -0.2342205,0.23422045 0,0.1288218 0.1053993,0.2342212 0.2342205,0.2342212 l 0.2342212,0 0,1.5623853 -2.3150394,3.8575002 C 1.2253599,7.4575806 1.6347339,8.18062 2.6653058,8.18062 l 4.6844167,0 c 1.0305721,0 1.4399462,-0.7230394 0.9097291,-1.6067401 z M 3.0242347,5.3699696 4.5390726,2.8452298 l 0,-1.6912354 0.9368835,0 0,1.6912354 1.514853,2.5247398 -3.9665744,0 z"
     id="path3051" />
</svg>
