<?xml version="1.0" encoding="UTF-8" standalone="no"?>
<!-- Created with Inkscape (http://www.inkscape.org/) -->

<svg
   xmlns:dc="http://purl.org/dc/elements/1.1/"
   xmlns:cc="http://creativecommons.org/ns#"
   xmlns:rdf="http://www.w3.org/1999/02/22-rdf-syntax-ns#"
   xmlns:svg="http://www.w3.org/2000/svg"
   xmlns="http://www.w3.org/2000/svg"
   xmlns:sodipodi="http://sodipodi.sourceforge.net/DTD/sodipodi-0.dtd"
   xmlns:inkscape="http://www.inkscape.org/namespaces/inkscape"
   width="32"
   height="100"
   id="svg3054"
   version="1.1"
   inkscape:version="0.48.3.1 r9886"
   sodipodi:docname="logo.svg">
  <defs
     id="defs3056" />
  <sodipodi:namedview
     id="base"
     pagecolor="#ffffff"
     bordercolor="#666666"
     borderopacity="1.0"
     inkscape:pageopacity="0.0"
     inkscape:pageshadow="2"
     inkscape:zoom="7.919596"
     inkscape:cx="-14.290376"
     inkscape:cy="69.56375"
     inkscape:document-units="px"
     inkscape:current-layer="layer1"
     showgrid="false"
     inkscape:window-width="1366"
     inkscape:window-height="744"
     inkscape:window-x="0"
     inkscape:window-y="24"
     inkscape:window-maximized="1" />
  <metadata
     id="metadata3059">
    <rdf:RDF>
      <cc:Work
         rdf:about="">
        <dc:format>image/svg+xml</dc:format>
        <dc:type
           rdf:resource="http://purl.org/dc/dcmitype/StillImage" />
        <dc:title />
      </cc:Work>
    </rdf:RDF>
  </metadata>
  <g
     inkscape:label="Layer 1"
     inkscape:groupmode="layer"
     id="layer1"
     transform="translate(0,-952.35986)">
    <path
       id="path3445"
       d="m 20.818411,959.29831 4.821702,-6.52124 5.963636,8.08915 c -0.005,28.34144 0.01366,49.75498 0.01306,76.22418 l -15.687762,14.914 0,-0.04 -15.67906762,-14.906 c 0,-15.4307 0,-31.1799 0,-46.6106 l 0.0124249,0 0,-29.61416 5.96363482,-8.08854 4.8217009,6.52063 4.889386,-6.30578 4.881313,6.33869 z"
       style="fill:#ffffff;stroke:#000000;stroke-width:0.13414266999999999;opacity:0.79012346"
       inkscape:connector-curvature="0"
       sodipodi:nodetypes="ccccccccccccccc" />
    <path
       id="path3447"
       d="m 15.917015,954.92867 4.917541,6.29957 4.804937,-6.29957 4.768919,6.30764 0,23.03454 -14.479387,0 z"
       style="fill:#000000;fill-rule:evenodd;stroke:none"
       inkscape:connector-curvature="0"
       sodipodi:nodetypes="ccccccc" />
    <path
       id="path3449"
       d="m 15.929025,984.27085 -5.02e-4,66.34635 -14.7035505,-14.0112 0,-52.50032 14.7041735,0.16517 z"
       style="fill:#000000;fill-rule:evenodd;stroke:none"
       inkscape:connector-curvature="0"
       sodipodi:nodetypes="cccccc" />
    <path
       id="path3451"
       d="m 30.408412,984.27085 c 0,15.43007 0,37.07025 0,52.50035 l -14.479387,13.846 0,-66.34635 z"
       style="fill:#008000;fill-rule:evenodd;stroke:none"
       inkscape:connector-curvature="0"
       sodipodi:nodetypes="ccccc" />
    <path
       id="path3453"
       d="m 1.2279592,984.28491 0,-23.05729 4.9260206,-6.29895 4.8502662,6.29895 4.914312,-6.29895 0.01059,29.34311 z"
       style="fill:#008000;fill-rule:evenodd;stroke:none"
       inkscape:connector-curvature="0"
       sodipodi:nodetypes="ccccccc" />
    <path
       inkscape:connector-curvature="0"
       style="fill:#ffffff;fill-rule:evenodd;stroke:none"
       d="m 13.115871,1025.6108 5.589201,0 0,14.313 -5.589201,0 0,-14.313 z"
       id="path3457" />
    <path
       inkscape:connector-curvature="0"
       style="fill:#ffffff;fill-rule:evenodd;stroke:none"
       d="m 7.1642375,988.68645 5.5767805,0 0,5.00923 6.09714,0 0,-5.00923 5.60162,0 0,14.31355 -5.60162,0 0,-5.7891 -6.09714,0 0,5.7891 -5.5767805,0 0,-14.31355 z"
       id="path3459" />
    <path
       inkscape:connector-curvature="0"
       style="fill:#ffffff;fill-rule:evenodd;stroke:none"
       d="m 5.1231969,1012.1839 c 1.0146373,-6.1903 9.3534191,-5.6358 10.7480801,-2.4373 2.115588,-3.1563 9.780014,-3.6562 10.407175,2.5062 l 0,8.0935 -4.796862,0 0,-6.4772 c 0,-0.9625 -0.176352,-1.6561 -0.529673,-2.0802 -0.352703,-0.4197 -0.802893,-0.6321 -1.352437,-0.6321 -0.337177,0 -0.630267,0.098 -0.882995,0.2937 -0.249003,0.1956 -0.425354,0.4527 -0.530295,0.7712 -0.06023,0.1994 -0.0919,0.575 -0.0919,1.1333 l 0,6.9913 -2.276414,0 -0.234099,0 -2.275794,0 0,-6.9913 c 0,-0.5583 -0.03229,-0.9339 -0.09252,-1.1333 -0.104319,-0.3185 -0.28067,-0.5756 -0.529672,-0.7712 -0.252729,-0.1956 -0.545819,-0.2937 -0.882996,-0.2937 -0.550164,0 -0.999734,0.2124 -1.352435,0.6321 -0.353323,0.4241 -0.5302946,1.1177 -0.5302946,2.0802 l 0,6.4772 -4.7968645,0 0,-8.1624 z"
       id="path3461" />
    <g
       style="fill-rule:evenodd"
       id="g3463"
       transform="matrix(0.62095323,0,0,0.62095323,-206.52746,778.25117)">
      <path
         id="path3465"
         d="m 358.654,298.608 c 6.759,0 12.457,4.33 14.2,10.234 -1.328,-3.348 -4.202,-6.063 -8.043,-7.118 -6.537,-1.795 -13.4,1.899 -15.325,8.25 -1.925,6.351 1.815,12.957 8.353,14.752 4.4,1.208 8.947,-0.072 12.038,-2.974 -2.706,3.017 -6.73,4.932 -11.223,4.932 -8.145,0 -14.75,-6.286 -14.75,-14.038 0,-7.752 6.605,-14.038 14.75,-14.038 z"
         style="fill:#ffffff;stroke:none"
         inkscape:connector-curvature="0" />
    </g>
    <path
       style="fill:#ffffff;fill-opacity:1;stroke:none"
       inkscape:transform-center-y="-1.7047551"
       d="m 25.047172,977.24591 -2.05331,-1.80271 -2.254837,1.54323 1.079969,-2.50989 -2.164476,-1.66759 2.720766,0.25151 0.91712,-2.57385 0.601556,2.66532 2.731287,0.0769 -2.348984,1.39575 z"
       id="path4944"
       inkscape:connector-curvature="0"
       inkscape:transform-center-x="-0.40789" />
  </g>
</svg>
