<?xml version="1.0" encoding="UTF-8" standalone="no"?>
<!-- Created with Inkscape (http://www.inkscape.org/) -->

<svg
   xmlns:dc="http://purl.org/dc/elements/1.1/"
   xmlns:cc="http://creativecommons.org/ns#"
   xmlns:rdf="http://www.w3.org/1999/02/22-rdf-syntax-ns#"
   xmlns:svg="http://www.w3.org/2000/svg"
   xmlns="http://www.w3.org/2000/svg"
   xmlns:sodipodi="http://sodipodi.sourceforge.net/DTD/sodipodi-0.dtd"
   xmlns:inkscape="http://www.inkscape.org/namespaces/inkscape"
   width="32"
   height="45"
   id="svg3054"
   version="1.1"
   inkscape:version="0.48.3.1 r9886"
   sodipodi:docname="logo.svg">
  <defs
     id="defs3056" />
  <sodipodi:namedview
     id="base"
     pagecolor="#ffffff"
     bordercolor="#666666"
     borderopacity="1.0"
     inkscape:pageopacity="0.0"
     inkscape:pageshadow="2"
     inkscape:zoom="31.678384"
     inkscape:cx="16.445766"
     inkscape:cy="10.673707"
     inkscape:document-units="px"
     inkscape:current-layer="layer1"
     showgrid="false"
     inkscape:window-width="1366"
     inkscape:window-height="744"
     inkscape:window-x="0"
     inkscape:window-y="24"
     inkscape:window-maximized="1" />
  <metadata
     id="metadata3059">
    <rdf:RDF>
      <cc:Work
         rdf:about="">
        <dc:format>image/svg+xml</dc:format>
        <dc:type
           rdf:resource="http://purl.org/dc/dcmitype/StillImage" />
        <dc:title />
      </cc:Work>
    </rdf:RDF>
  </metadata>
  <g
     inkscape:label="Layer 1"
     inkscape:groupmode="layer"
     id="layer1"
     transform="translate(0,-1007.3599)">
    <g
       id="g2993"
       transform="translate(5.3348681,0)">
      <path
         sodipodi:nodetypes="ccccccccccccccc"
         inkscape:connector-curvature="0"
         style="opacity:0.79012326;fill:#ffffff;stroke:#000000;stroke-width:0.05970529"
         d="m 18.669781,1010.2849 2.146082,-2.9025 2.654342,3.6004 c -0.0023,12.6144 0.0061,22.1454 0.0058,33.9265 l -6.982435,6.638 0,-0.019 -6.9785633,-6.6344 c 0,-6.8681 0,-13.8779 0,-20.7459 l 0.00553,0 0,-13.1809 2.6543413,-3.6001 2.146082,2.9023 2.176207,-2.8067 2.172613,2.8213 z"
         id="path3445" />
      <path
         sodipodi:nodetypes="ccccccc"
         inkscape:connector-curvature="0"
         style="fill:#000000;fill-rule:evenodd;stroke:none"
         d="m 16.48823,1008.3401 2.188737,2.8038 2.13862,-2.8038 2.122588,2.8074 0,10.2525 -6.4446,0 z"
         id="path3447" />
      <path
         sodipodi:nodetypes="cccccc"
         inkscape:connector-curvature="0"
         style="fill:#000000;fill-rule:evenodd;stroke:none"
         d="m 16.493575,1021.4 -2.24e-4,29.53 -6.5443732,-6.2364 0,-23.3672 6.5446502,0.073 z"
         id="path3449" />
      <path
         sodipodi:nodetypes="ccccc"
         inkscape:connector-curvature="0"
         style="fill:#008000;fill-rule:evenodd;stroke:none"
         d="m 22.938175,1021.4 c 0,6.8676 0,16.4994 0,23.3672 l -6.4446,6.1628 0,-29.53 z"
         id="path3451" />
      <path
         sodipodi:nodetypes="ccccccc"
         inkscape:connector-curvature="0"
         style="fill:#008000;fill-rule:evenodd;stroke:none"
         d="m 9.9503072,1021.4062 0,-10.2626 2.1925128,-2.8035 2.158794,2.8035 2.187301,-2.8035 0.0047,13.0602 z"
         id="path3453" />
      <path
         id="path3457"
         d="m 15.241474,1039.7999 2.487686,0 0,6.3705 -2.487686,0 0,-6.3705 z"
         style="fill:#ffffff;fill-rule:evenodd;stroke:none"
         inkscape:connector-curvature="0" />
      <path
         id="path3459"
         d="m 12.592473,1023.3652 2.482157,0 0,2.2296 2.713764,0 0,-2.2296 2.493215,0 0,6.3709 -2.493215,0 0,-2.5768 -2.713764,0 0,2.5768 -2.482157,0 0,-6.3709 z"
         style="fill:#ffffff;fill-rule:evenodd;stroke:none"
         inkscape:connector-curvature="0" />
      <path
         id="path3461"
         d="m 11.684031,1033.8236 c 0.451602,-2.7552 4.163094,-2.5083 4.783841,-1.0848 0.941622,-1.4048 4.352966,-1.6272 4.632108,1.1156 l 0,3.6023 -2.135026,0 0,-2.883 c 0,-0.4284 -0.07849,-0.7371 -0.235751,-0.9258 -0.156984,-0.1868 -0.357358,-0.2814 -0.601953,-0.2814 -0.150074,0 -0.280525,0.044 -0.393011,0.1307 -0.110827,0.087 -0.18932,0.2016 -0.236028,0.3432 -0.02681,0.089 -0.0409,0.2561 -0.0409,0.5045 l 0,3.1118 -1.013204,0 -0.104195,0 -1.012928,0 0,-3.1118 c 0,-0.2484 -0.01438,-0.4156 -0.04118,-0.5045 -0.04644,-0.1416 -0.124923,-0.2561 -0.23575,-0.3432 -0.112487,-0.087 -0.242937,-0.1307 -0.393012,-0.1307 -0.244871,0 -0.444969,0.095 -0.601951,0.2814 -0.157261,0.1887 -0.236029,0.4974 -0.236029,0.9258 l 0,2.883 -2.135026,0 0,-3.6331 z"
         style="fill:#ffffff;fill-rule:evenodd;stroke:none"
         inkscape:connector-curvature="0" />
      <g
         transform="matrix(0.2763788,0,0,0.2763788,-82.519129,929.70304)"
         id="g3463"
         style="fill-rule:evenodd">
        <path
           inkscape:connector-curvature="0"
           style="fill:#ffffff;stroke:none"
           d="m 358.654,298.608 c 6.759,0 12.457,4.33 14.2,10.234 -1.328,-3.348 -4.202,-6.063 -8.043,-7.118 -6.537,-1.795 -13.4,1.899 -15.325,8.25 -1.925,6.351 1.815,12.957 8.353,14.752 4.4,1.208 8.947,-0.072 12.038,-2.974 -2.706,3.017 -6.73,4.932 -11.223,4.932 -8.145,0 -14.75,-6.286 -14.75,-14.038 0,-7.752 6.605,-14.038 14.75,-14.038 z"
           id="path3465" />
      </g>
      <path
         inkscape:transform-center-x="-0.18154615"
         inkscape:connector-curvature="0"
         id="path4944"
         d="m 20.551951,1018.2732 -0.913902,-0.8023 -1.003602,0.6868 0.480682,-1.1171 -0.963383,-0.7422 1.21098,0.1119 0.4082,-1.1456 0.267744,1.1864 1.215663,0.034 -1.045504,0.6212 z"
         inkscape:transform-center-y="-0.75875481"
         style="fill:#ffffff;fill-opacity:1;stroke:none" />
    </g>
  </g>
</svg>
