<?xml version="1.0" encoding="UTF-8" standalone="no"?>
<!-- Generator: IcoMoon.io -->

<svg
   xmlns:dc="http://purl.org/dc/elements/1.1/"
   xmlns:cc="http://creativecommons.org/ns#"
   xmlns:rdf="http://www.w3.org/1999/02/22-rdf-syntax-ns#"
   xmlns:svg="http://www.w3.org/2000/svg"
   xmlns="http://www.w3.org/2000/svg"
   xmlns:sodipodi="http://sodipodi.sourceforge.net/DTD/sodipodi-0.dtd"
   xmlns:inkscape="http://www.inkscape.org/namespaces/inkscape"
   width="10"
   height="8.8000002"
   viewBox="0 0 10 8.8000002"
   id="svg2"
   version="1.1"
   inkscape:version="0.48.3.1 r9886"
   sodipodi:docname="locations.svg"
   style="fill:#000000">
  <metadata
     id="metadata73">
    <rdf:RDF>
      <cc:Work
         rdf:about="">
        <dc:format>image/svg+xml</dc:format>
        <dc:type
           rdf:resource="http://purl.org/dc/dcmitype/StillImage" />
      </cc:Work>
    </rdf:RDF>
  </metadata>
  <defs
     id="defs71" />
  <sodipodi:namedview
     pagecolor="#ffffff"
     bordercolor="#666666"
     borderopacity="1"
     objecttolerance="10"
     gridtolerance="10"
     guidetolerance="10"
     inkscape:pageopacity="0"
     inkscape:pageshadow="2"
     inkscape:window-width="701"
     inkscape:window-height="573"
     id="namedview69"
     showgrid="false"
     inkscape:zoom="45.254834"
     inkscape:cx="4.5083103"
     inkscape:cy="4.0578336"
     inkscape:window-x="499"
     inkscape:window-y="96"
     inkscape:window-maximized="0"
     inkscape:current-layer="svg2" />
  <g
     id="Layer_1"
     transform="matrix(0.27286774,0,0,0.27286774,0.6612035,0.0257476)" />
  <path
     inkscape:connector-curvature="0"
     style="fill:#4e4e50"
     d="M 3.9356164,3.3001605"
     id="path2992" />
  <path
     inkscape:connector-curvature="0"
     style="fill:#4e4e50"
     d="M 3.9356164,3.3001605"
     id="path2994" />
  <g
     id="g3007"
     transform="matrix(0.23795115,0,0,0.23795115,2.6365717,0.67021482)"
     style="fill:#d40000">
    <g
       id="Layer_1-9"
       style="fill:#d40000">
</g>
    <g
       id="map_x5F_pin_x5F_fill"
       style="fill:#d40000">
	<g
   id="g2995"
   style="fill:#d40000">
		<g
   id="g2997"
   style="fill:#d40000">
			<path
   id="path2999"
   d="m 17.07,2.93 c -3.906,-3.906 -10.234,-3.906 -14.141,0 -3.906,3.904 -3.906,10.238 0,14.141 0,0 7.066,6.93 7.066,14.93 0,-8 7.074,-14.93 7.074,-14.93 C 20.977,13.168 20.977,6.834 17.07,2.93 z M 9.996,14.006 c -2.207,0 -3.996,-1.789 -3.996,-4 0,-2.211 1.789,-4 3.996,-4 2.215,0 4.004,1.789 4.004,4 0,2.211 -1.789,4 -4.004,4 z"
   style="fill:#d40000"
   inkscape:connector-curvature="0" />

		</g>

	</g>

</g>
  </g>
</svg>
