<?xml version="1.0" encoding="UTF-8" standalone="no"?>
<!-- Generator: Adobe Illustrator 15.1.0, SVG Export Plug-In . SVG Version: 6.00 Build 0)  -->

<svg
   xmlns:dc="http://purl.org/dc/elements/1.1/"
   xmlns:cc="http://creativecommons.org/ns#"
   xmlns:rdf="http://www.w3.org/1999/02/22-rdf-syntax-ns#"
   xmlns:svg="http://www.w3.org/2000/svg"
   xmlns="http://www.w3.org/2000/svg"
   xmlns:sodipodi="http://sodipodi.sourceforge.net/DTD/sodipodi-0.dtd"
   xmlns:inkscape="http://www.inkscape.org/namespaces/inkscape"
   version="1.1"
   x="0px"
   y="0px"
   width="32"
   height="32"
   viewBox="0 0 32 32"
   xml:space="preserve"
   id="svg2"
   inkscape:version="0.48.3.1 r9886"
   sodipodi:docname="no-image-thumb.svg"><metadata
   id="metadata16"><rdf:RDF><cc:Work
       rdf:about=""><dc:format>image/svg+xml</dc:format><dc:type
         rdf:resource="http://purl.org/dc/dcmitype/StillImage" /></cc:Work></rdf:RDF></metadata><defs
   id="defs14" /><sodipodi:namedview
   pagecolor="#ffffff"
   bordercolor="#666666"
   borderopacity="1"
   objecttolerance="10"
   gridtolerance="10"
   guidetolerance="10"
   inkscape:pageopacity="0"
   inkscape:pageshadow="2"
   inkscape:window-width="1366"
   inkscape:window-height="744"
   id="namedview12"
   showgrid="false"
   inkscape:zoom="16"
   inkscape:cx="13.251007"
   inkscape:cy="15.249806"
   inkscape:window-x="0"
   inkscape:window-y="24"
   inkscape:window-maximized="1"
   inkscape:current-layer="svg2" />
<g
   id="Layer_1">
</g>
<rect
   style="fill:#f2f2f2;fill-opacity:1;fill-rule:nonzero;stroke:none"
   id="rect2995"
   width="31.878462"
   height="32.005634"
   x="-4.3642723e-07"
   y="0.0024410337"
   ry="0.12210994" />

<g
   id="g2985"
   transform="matrix(0.80597073,0,0,0.80597073,3.3034262,0.3807922)"><path
     inkscape:connector-curvature="0"
     id="path3817"
     d="m 11.212324,16.894663 c 0,-2.251954 5.93e-4,-2.312839 0.02359,-2.425465 0.09559,-0.468139 0.438946,-0.818244 0.912739,-0.930688 0.07668,-0.0182 0.187302,-0.02103 0.975378,-0.025 l 0.888883,-0.0045 0.47406,-0.334326 0.474061,-0.334324 1.243579,0 1.243579,0 0.109042,0.08041 c 0.05997,0.04422 0.200556,0.153564 0.312409,0.242989 0.111851,0.08942 0.256371,0.203977 0.321154,0.25456 l 0.117787,0.09197 0.362394,0 0.362394,0 0.0045,-0.131444 c 0.0068,-0.199523 -0.02541,-0.185572 0.428811,-0.185572 0.4569,0 0.422594,-0.01578 0.428919,0.197308 0.0048,0.162175 -0.0056,0.148867 0.127352,0.16184 0.106901,0.01043 0.257425,0.04377 0.33789,0.07484 0.200705,0.07752 0.285833,0.183332 0.341551,0.424566 l 0.0255,0.110431 0.0038,2.521168 0.0038,2.521169 -4.76153,0 -4.761531,0 0,-2.30994 z m 5.35337,1.838784 c 0.510434,-0.09016 0.948992,-0.315792 1.304217,-0.671026 0.357786,-0.357794 0.574571,-0.774801 0.671792,-1.292256 0.02549,-0.135696 0.03452,-0.516495 0.01597,-0.674115 -0.04851,-0.412329 -0.217426,-0.832106 -0.469583,-1.166996 -0.09372,-0.124467 -0.334405,-0.365153 -0.458872,-0.458872 -0.322396,-0.242751 -0.711064,-0.405048 -1.109159,-0.463154 -0.165976,-0.02423 -0.511355,-0.02463 -0.668334,-7.65e-4 -0.527848,0.08022 -0.983602,0.309383 -1.356095,0.681877 -0.382383,0.382382 -0.611224,0.849871 -0.682457,1.394163 -0.02262,0.172894 -0.0167,0.514023 0.01174,0.675899 0.0891,0.507145 0.315922,0.947272 0.670869,1.301813 0.07128,0.07121 0.17156,0.161392 0.222842,0.200429 0.34402,0.261882 0.752167,0.430725 1.171167,0.484495 0.153276,0.01967 0.536345,0.01316 0.675901,-0.0115 l 0,0 z m 3.194555,-3.530627 c 0.210258,-0.05354 0.356359,-0.187628 0.432236,-0.396665 0.02166,-0.05968 0.02786,-0.101459 0.02786,-0.187972 0,-0.174242 -0.05167,-0.300454 -0.172458,-0.421239 -0.07538,-0.07538 -0.142817,-0.116027 -0.258205,-0.155642 -0.05308,-0.01822 -0.09702,-0.02227 -0.227294,-0.02091 -0.328457,0.0034 -0.472104,0.06974 -0.521876,0.240943 -0.06828,0.234844 0.106535,0.686562 0.333426,0.861606 0.119646,0.09231 0.239892,0.11717 0.386314,0.07989 z M 17.1131,13.524204 c 0.161242,-0.100245 0.130131,-0.357096 -0.04958,-0.409293 -0.02892,-0.0084 -0.322858,-0.01138 -0.887502,-0.009 l -0.84426,0.0035 -0.05091,0.03369 c -0.09365,0.06198 -0.12404,0.192302 -0.06908,0.296231 0.02085,0.03943 0.04374,0.06088 0.09167,0.08593 l 0.06388,0.03337 0.850403,-0.0033 0.850402,-0.0033 0.04496,-0.02796 0,0 z"
     style="fill:#999999;fill-opacity:1;fill-rule:nonzero;stroke:none" /><path
     inkscape:connector-curvature="0"
     id="path3811"
     d="m 15.512798,24.89286 c -0.940979,-0.05049 -1.820004,-0.249412 -2.770596,-0.626967 -0.761924,-0.30262 -1.611043,-0.813591 -2.226196,-1.339649 -1.7969024,-1.53665 -2.8257181,-3.423926 -3.0935229,-5.67481 -0.058483,-0.491545 -0.050915,-1.663934 0.013744,-2.129176 0.1992661,-1.433786 0.7327158,-2.7656 1.5633762,-3.903135 0.6665419,-0.912786 1.6702857,-1.8393757 2.5519227,-2.3557646 1.047512,-0.6135451 2.107106,-0.9893278 3.238052,-1.1483675 0.511007,-0.071861 1.566908,-0.096599 2.047259,-0.047965 1.625058,0.1645317 3.072966,0.7349715 4.41241,1.7383806 0.391762,0.2934781 1.302218,1.1955165 1.587607,1.5729285 0.660448,0.873408 1.154954,1.838922 1.454885,2.840633 0.394179,1.316481 0.460945,2.743869 0.191046,4.084399 -0.469107,2.329951 -1.784683,4.290709 -3.749292,5.588006 -1.213847,0.801544 -2.733924,1.315969 -4.097985,1.386842 -0.192599,0.01001 -0.424145,0.02276 -0.514548,0.02833 -0.0904,0.0056 -0.364075,-5.86e-4 -0.608162,-0.01368 l 0,0 z m 1.594371,-1.229025 c 1.572826,-0.243973 2.949311,-0.923719 4.107299,-2.028296 l 0.290102,-0.276722 -2.264448,-1.70022 c -1.245446,-0.935121 -2.286181,-1.718748 -2.312744,-1.741392 -0.02656,-0.02264 -0.781014,-0.591517 -1.676555,-1.26416 -0.895542,-0.672643 -1.783586,-1.341239 -1.973432,-1.485768 -0.189845,-0.144529 -1.092226,-0.824459 -2.005291,-1.510955 -1.6342946,-1.22876 -1.6609578,-1.247104 -1.7140642,-1.179257 -0.068104,0.08701 -0.3366489,0.625442 -0.4629179,0.928154 -0.8002501,1.918495 -0.72832,4.28384 0.1869415,6.14737 1.1205676,2.281546 3.3347486,3.844881 5.8691286,4.143932 0.471023,0.05558 1.497542,0.03843 1.955981,-0.03269 l 0,0 z m 5.264095,-3.461992 c 0.313934,-0.488836 0.654356,-1.266062 0.835942,-1.908564 0.156193,-0.55265 0.226099,-1.034254 0.24835,-1.710973 0.02416,-0.734863 -0.02062,-1.345901 -0.137304,-1.873334 -0.4294,-1.94099 -1.569657,-3.616929 -3.184235,-4.680159 -2.498228,-1.64513 -5.778558,-1.6443925 -8.254688,0.0019 -0.482681,0.320909 -0.96815,0.726078 -1.30698,1.090796 l -0.255516,0.275038 0.07493,0.07133 c 0.04121,0.03923 2.049603,1.556297 4.46309,3.37126 2.413488,1.814962 5.061459,3.806292 5.88438,4.425177 0.822922,0.618885 1.499465,1.125551 1.503429,1.125922 0.004,3.72e-4 0.06183,-0.08438 0.1286,-0.188347 l 0,0 z"
     style="fill:#cccccc;fill-opacity:1;fill-rule:nonzero;stroke:#ffffff;stroke-width:0.14016068;stroke-miterlimit:4;stroke-opacity:1;stroke-dasharray:none" /></g><g
   style="font-size:3.27875924px;font-style:normal;font-weight:normal;line-height:125%;letter-spacing:0px;word-spacing:0px;fill:#4d4d4d;fill-opacity:1;stroke:none;font-family:Sans"
   id="text2986"
   transform="matrix(1.0042364,0,0,1.0042364,0.12866752,7.7493503)"><path
     d="m 10.53028,16.569635 0,-1.128674 c -10e-7,-0.175037 -0.03682,-0.302046 -0.110466,-0.381028 -0.07365,-0.08005 -0.187846,-0.12007 -0.342604,-0.120071 -0.2081256,1e-6 -0.36075,0.05283 -0.457874,0.158494 -0.096058,0.104597 -0.1440865,0.274832 -0.1440861,0.510705 l 0,0.960574 -0.1584947,0 0,-1.740239 0.1344804,0 0.030418,0.238542 0.00961,0 c 0.1131337,-0.18144 0.3143204,-0.272161 0.6035604,-0.272163 0.394901,2e-6 0.592352,0.211862 0.592354,0.63558 l 0,1.13828 -0.156894,0"
     style="font-variant:normal;font-weight:300;font-stretch:normal;text-align:start;line-height:125%;writing-mode:lr-tb;text-anchor:start;fill:#4d4d4d;font-family:Open Sans;-inkscape-font-specification:Open Sans Light"
     id="path2991"
     inkscape:connector-curvature="0" /><path
     d="m 12.689971,15.697114 c -2e-6,0.283904 -0.06884,0.505903 -0.206524,0.665998 -0.137683,0.159028 -0.327663,0.238542 -0.56994,0.238543 -0.152625,-1e-6 -0.287106,-0.03682 -0.403441,-0.110466 -0.116337,-0.07364 -0.205457,-0.179307 -0.26736,-0.31699 -0.0619,-0.137682 -0.09286,-0.29671 -0.09286,-0.477085 -1e-6,-0.283902 0.06884,-0.504834 0.206523,-0.662796 0.137682,-0.159027 0.326594,-0.238541 0.566739,-0.238543 0.239075,2e-6 0.426386,0.08058 0.561935,0.241745 0.136614,0.160097 0.204921,0.379961 0.204923,0.659594 m -1.373621,0 c 0,0.239077 0.0523,0.425855 0.156894,0.560335 0.105662,0.133413 0.254551,0.20012 0.446667,0.200119 0.192113,1e-6 0.340469,-0.06671 0.445066,-0.200119 0.105661,-0.13448 0.158493,-0.321258 0.158494,-0.560335 -1e-6,-0.240142 -0.05337,-0.426387 -0.160095,-0.558734 -0.105665,-0.132344 -0.254554,-0.198517 -0.446667,-0.198518 -0.192116,1e-6 -0.340471,0.06617 -0.445066,0.198518 -0.103529,0.13128 -0.155293,0.317524 -0.155293,0.558734"
     style="font-variant:normal;font-weight:300;font-stretch:normal;text-align:start;line-height:125%;writing-mode:lr-tb;text-anchor:start;fill:#4d4d4d;font-family:Open Sans;-inkscape-font-specification:Open Sans Light"
     id="path2993"
     inkscape:connector-curvature="0" /><path
     d="m 13.027773,15.749946 0,-0.131279 0.760454,0 0,0.131279 -0.760454,0"
     style="font-variant:normal;font-weight:300;font-stretch:normal;text-align:start;line-height:125%;writing-mode:lr-tb;text-anchor:start;fill:#4d4d4d;font-family:Open Sans;-inkscape-font-specification:Open Sans Light"
     id="path2995"
     inkscape:connector-curvature="0" /><path
     d="m 14.386985,16.569635 -0.158495,0 0,-1.740239 0.158495,0 0,1.740239 m -0.180908,-2.223728 c 0,-0.102459 0.03362,-0.15369 0.10086,-0.153692 0.03309,2e-6 0.0587,0.01334 0.07685,0.04002 0.01921,0.02669 0.02882,0.06457 0.02882,0.113668 0,0.04803 -0.0096,0.08592 -0.02882,0.113668 -0.01814,0.02775 -0.04376,0.04163 -0.07685,0.04162 -0.06724,2e-6 -0.10086,-0.05176 -0.10086,-0.155292"
     style="font-variant:normal;font-weight:300;font-stretch:normal;text-align:start;line-height:125%;writing-mode:lr-tb;text-anchor:start;fill:#4d4d4d;font-family:Open Sans;-inkscape-font-specification:Open Sans Light"
     id="path2997"
     inkscape:connector-curvature="0" /><path
     d="m 17.145434,16.569635 0,-1.141482 c -3e-6,-0.1697 -0.03309,-0.293507 -0.09926,-0.371422 -0.06618,-0.07791 -0.167569,-0.116868 -0.304182,-0.116869 -0.178241,1e-6 -0.310053,0.0491 -0.395436,0.147288 -0.08539,0.09819 -0.128078,0.252418 -0.128076,0.462676 l 0,1.019809 -0.161697,0 0,-1.18951 c -1e-6,-0.293508 -0.134482,-0.440262 -0.403441,-0.440263 -0.18251,1e-6 -0.315389,0.05337 -0.398638,0.160095 -0.08325,0.105665 -0.124875,0.275366 -0.124875,0.509104 l 0,0.960574 -0.158495,0 0,-1.740239 0.131279,0 0.03362,0.238542 0.0096,0 c 0.04803,-0.08645 0.116335,-0.153156 0.204922,-0.20012 0.08859,-0.04803 0.186244,-0.07204 0.292975,-0.07204 0.274296,2e-6 0.450401,0.102997 0.528316,0.308985 l 0.0064,0 c 0.05656,-0.09926 0.132344,-0.17557 0.227336,-0.228937 0.09605,-0.05336 0.20492,-0.08005 0.326595,-0.08005 0.189978,2e-6 0.332463,0.0507 0.427455,0.152091 0.09499,0.101396 0.142483,0.262559 0.142485,0.483489 l 0,1.13828 -0.156893,0"
     style="font-variant:normal;font-weight:300;font-stretch:normal;text-align:start;line-height:125%;writing-mode:lr-tb;text-anchor:start;fill:#4d4d4d;font-family:Open Sans;-inkscape-font-specification:Open Sans Light"
     id="path2999"
     inkscape:connector-curvature="0" /><path
     d="m 18.922495,16.569635 -0.04002,-0.275364 -0.01281,0 c -0.08752,0.112067 -0.177708,0.191581 -0.270562,0.238542 -0.09179,0.04589 -0.200654,0.06884 -0.326595,0.06884 -0.17077,-10e-7 -0.303649,-0.04376 -0.398639,-0.131279 -0.09499,-0.08752 -0.142485,-0.208658 -0.142485,-0.363417 0,-0.169701 0.07044,-0.301513 0.211327,-0.395436 0.141951,-0.09392 0.346873,-0.143552 0.614767,-0.148889 l 0.331398,-0.0096 0,-0.115269 c -1e-6,-0.165431 -0.03362,-0.290305 -0.10086,-0.374624 -0.06724,-0.08432 -0.175573,-0.126474 -0.324994,-0.126475 -0.161164,10e-7 -0.328197,0.04483 -0.5011,0.13448 l -0.05924,-0.137682 c 0.191047,-0.08965 0.379959,-0.134479 0.566738,-0.134481 0.191047,2e-6 0.333532,0.04963 0.427456,0.148889 0.09499,0.09926 0.142483,0.25402 0.142485,0.464278 l 0,1.157491 -0.11687,0 m -0.640383,-0.112067 c 0.185711,1e-6 0.331931,-0.05283 0.438663,-0.158494 0.107796,-0.10673 0.161695,-0.254552 0.161696,-0.443465 l 0,-0.171303 -0.304182,0.01281 c -0.244413,0.01174 -0.418917,0.05016 -0.523512,0.115269 -0.103529,0.06404 -0.155294,0.164365 -0.155293,0.30098 -1e-6,0.108865 0.03309,0.193716 0.09926,0.254552 0.06724,0.05977 0.161696,0.08965 0.283369,0.08965"
     style="font-variant:normal;font-weight:300;font-stretch:normal;text-align:start;line-height:125%;writing-mode:lr-tb;text-anchor:start;fill:#4d4d4d;font-family:Open Sans;-inkscape-font-specification:Open Sans Light"
     id="path3001"
     inkscape:connector-curvature="0" /><path
     d="m 20.958912,14.829396 0,0.110466 -0.360215,0.02241 c 0.09606,0.119539 0.144085,0.250818 0.144086,0.393835 -1e-6,0.167568 -0.05603,0.303649 -0.1681,0.408244 -0.111001,0.103529 -0.260424,0.155294 -0.448268,0.155293 -0.07898,10e-7 -0.134481,-0.0032 -0.1665,-0.0096 -0.06297,0.03309 -0.111,0.07204 -0.144086,0.11687 -0.03309,0.04483 -0.04963,0.09232 -0.04963,0.142485 -1e-6,0.0555 0.02081,0.09606 0.06244,0.121673 0.04269,0.02561 0.113667,0.03842 0.212927,0.03842 l 0.304182,0 c 0.188912,0 0.333531,0.03842 0.433859,0.115269 0.100325,0.07578 0.150489,0.188379 0.15049,0.337802 -1e-6,0.183576 -0.07471,0.324993 -0.224134,0.424253 -0.148356,0.100326 -0.360216,0.150489 -0.63558,0.15049 -0.218798,-1e-6 -0.388499,-0.04216 -0.509104,-0.126476 -0.119538,-0.08432 -0.179307,-0.201721 -0.179307,-0.35221 0,-0.119538 0.03682,-0.218797 0.110466,-0.297778 0.07471,-0.07898 0.175571,-0.132879 0.302581,-0.161697 -0.0523,-0.02241 -0.09446,-0.0539 -0.126476,-0.09446 -0.03095,-0.04162 -0.04643,-0.08912 -0.04643,-0.142485 -10e-7,-0.116336 0.07418,-0.218797 0.222533,-0.307384 -0.101395,-0.04162 -0.180375,-0.106729 -0.236942,-0.195317 -0.05657,-0.08965 -0.08485,-0.192113 -0.08485,-0.307383 0,-0.173969 0.05497,-0.313253 0.164899,-0.41785 0.110999,-0.105661 0.260421,-0.158493 0.448268,-0.158495 0.1142,2e-6 0.202786,0.01121 0.265758,0.03362 l 0.557133,0 m -1.408842,2.034815 c 0,0.239076 0.177706,0.358614 0.533119,0.358615 0.456805,-1e-6 0.685208,-0.145688 0.68521,-0.437061 -2e-6,-0.104596 -0.03576,-0.180375 -0.107265,-0.227336 -0.07151,-0.04696 -0.187313,-0.07044 -0.347407,-0.07044 l -0.28497,0 c -0.319125,0 -0.478687,0.125408 -0.478687,0.376224 m 0.13288,-1.492091 c 0,0.134481 0.04056,0.239077 0.121673,0.313787 0.08218,0.07364 0.19158,0.110467 0.328196,0.110466 0.145152,1e-6 0.256152,-0.03682 0.332999,-0.110466 0.07791,-0.07364 0.116868,-0.180373 0.11687,-0.320191 -2e-6,-0.148354 -0.04003,-0.259354 -0.120072,-0.332999 -0.07898,-0.07471 -0.189981,-0.112065 -0.332999,-0.112067 -0.13875,2e-6 -0.248149,0.04003 -0.328196,0.120072 -0.07898,0.07898 -0.118471,0.189448 -0.118471,0.331398"
     style="font-variant:normal;font-weight:300;font-stretch:normal;text-align:start;line-height:125%;writing-mode:lr-tb;text-anchor:start;fill:#4d4d4d;font-family:Open Sans;-inkscape-font-specification:Open Sans Light"
     id="path3003"
     inkscape:connector-curvature="0" /><path
     d="m 22.020346,16.601655 c -0.252952,-1e-6 -0.450403,-0.07791 -0.592354,-0.23374 -0.140885,-0.155826 -0.211327,-0.37409 -0.211327,-0.654791 0,-0.277498 0.06831,-0.499498 0.204923,-0.665998 0.136614,-0.167566 0.320724,-0.251349 0.55233,-0.251351 0.204921,2e-6 0.366618,0.07151 0.48509,0.214529 0.118469,0.14302 0.177704,0.337269 0.177706,0.582748 l 0,0.128076 -1.253549,0 c 0.0021,0.239077 0.05763,0.421586 0.166499,0.547528 0.109932,0.125942 0.266826,0.188913 0.470682,0.188912 0.09926,1e-6 0.186243,-0.0069 0.260956,-0.02081 0.07578,-0.01387 0.171301,-0.04376 0.286571,-0.08965 l 0,0.144087 c -0.09819,0.04269 -0.188914,0.07151 -0.272163,0.08645 -0.08325,0.01601 -0.175039,0.02401 -0.275364,0.02402 m -0.04643,-1.664995 c -0.167568,1e-6 -0.302048,0.0555 -0.403441,0.166499 -0.101394,0.109934 -0.16063,0.268962 -0.177706,0.477085 l 1.075843,0 c -2e-6,-0.201719 -0.04376,-0.359146 -0.131279,-0.472282 -0.08752,-0.1142 -0.208659,-0.171301 -0.363417,-0.171302"
     style="font-variant:normal;font-weight:300;font-stretch:normal;text-align:start;line-height:125%;writing-mode:lr-tb;text-anchor:start;fill:#4d4d4d;font-family:Open Sans;-inkscape-font-specification:Open Sans Light"
     id="path3005"
     inkscape:connector-curvature="0" /></g></svg>