<?xml version="1.0" encoding="UTF-8" standalone="no"?>
<!-- Generator: IcoMoon.io -->

<svg
   xmlns:dc="http://purl.org/dc/elements/1.1/"
   xmlns:cc="http://creativecommons.org/ns#"
   xmlns:rdf="http://www.w3.org/1999/02/22-rdf-syntax-ns#"
   xmlns:svg="http://www.w3.org/2000/svg"
   xmlns="http://www.w3.org/2000/svg"
   xmlns:sodipodi="http://sodipodi.sourceforge.net/DTD/sodipodi-0.dtd"
   xmlns:inkscape="http://www.inkscape.org/namespaces/inkscape"
   width="10"
   height="8.8000002"
   viewBox="0 0 10 8.8000002"
   id="svg2"
   version="1.1"
   inkscape:version="0.48.3.1 r9886"
   sodipodi:docname="pengumuman.svg"
   style="fill:#000000">
  <metadata
     id="metadata73">
    <rdf:RDF>
      <cc:Work
         rdf:about="">
        <dc:format>image/svg+xml</dc:format>
        <dc:type
           rdf:resource="http://purl.org/dc/dcmitype/StillImage" />
      </cc:Work>
    </rdf:RDF>
  </metadata>
  <defs
     id="defs71" />
  <sodipodi:namedview
     pagecolor="#ffffff"
     bordercolor="#666666"
     borderopacity="1"
     objecttolerance="10"
     gridtolerance="10"
     guidetolerance="10"
     inkscape:pageopacity="0"
     inkscape:pageshadow="2"
     inkscape:window-width="1366"
     inkscape:window-height="744"
     id="namedview69"
     showgrid="false"
     inkscape:zoom="32"
     inkscape:cx="2.1516123"
     inkscape:cy="5.6273785"
     inkscape:window-x="0"
     inkscape:window-y="24"
     inkscape:window-maximized="1"
     inkscape:current-layer="svg2" />
  <path
     d="m 8.767214,6.6040449 c 0,-2.1155338 -1.8804746,-1.6454151 -1.8804746,-3.2908305 0,-0.1363344 -0.013134,-0.2528356 -0.037084,-0.3520601 C 6.7260283,2.130969 6.1727135,1.4647079 5.4556649,1.2616754 c 0.00634,-0.029 0.0097,-0.059 0.0097,-0.08969 0,-0.24444693 -0.2115529,-0.4444237 -0.4701188,-0.4444237 -0.2585651,0 -0.4701185,0.19997677 -0.4701185,0.4444091 0,0.030705 0.00335,0.060704 0.0097,0.08969 C 3.7306981,1.4893598 3.1324428,2.29958 3.115254,3.2702574 c -2.939e-4,0.014104 -4.842e-4,0.028384 -4.842e-4,0.042943 0,1.6454301 -1.8804746,1.1753114 -1.8804746,3.2908452 0,0.5599262 1.2530867,1.0283552 2.9306757,1.1465021 0.1581067,0.2967916 0.4705301,0.4989132 0.8302736,0.4989132 0.3597436,0 0.6721815,-0.2021216 0.8302733,-0.4989132 1.6775888,-0.1181469 2.9306761,-0.5865759 2.9306761,-1.1465021 0,-0.00167 -1.914e-4,-0.00335 -2.055e-4,-0.00501 l 0.011221,0.00501 z M 7.303573,7.0014128 C 6.905221,7.1077037 6.4356308,7.1841419 5.9316493,7.226541 5.8897538,6.7460062 5.4866375,6.3689856 4.9952462,6.3689856 c -0.4913915,0 -0.8945037,0.3770206 -0.936403,0.8575554 C 3.5548762,7.1841416 3.0852717,7.1077037 2.6869195,7.0014128 2.138717,6.8551324 1.8766259,6.6915017 1.7807069,6.6040449 1.8766259,6.5165883 2.138717,6.3529575 2.6869195,6.2066772 3.3243123,6.0366118 4.1440817,5.9429406 4.9952462,5.9429406 c 0.8511643,0 1.6709333,0.093671 2.3083268,0.2637366 0.5482018,0.1462803 0.8102935,0.309911 0.9062125,0.3973677 C 8.1138665,6.691502 7.8517748,6.8551324 7.303573,7.0014128 z"
     id="path67"
     inkscape:connector-curvature="0"
     style="fill:#ffffff" />
</svg>
