<?xml version="1.0" encoding="UTF-8" standalone="no"?>
<!-- Generator: IcoMoon.io -->

<svg
   xmlns:dc="http://purl.org/dc/elements/1.1/"
   xmlns:cc="http://creativecommons.org/ns#"
   xmlns:rdf="http://www.w3.org/1999/02/22-rdf-syntax-ns#"
   xmlns:svg="http://www.w3.org/2000/svg"
   xmlns="http://www.w3.org/2000/svg"
   xmlns:sodipodi="http://sodipodi.sourceforge.net/DTD/sodipodi-0.dtd"
   xmlns:inkscape="http://www.inkscape.org/namespaces/inkscape"
   width="10"
   height="8.8000002"
   viewBox="0 0 10 8.8000002"
   id="svg2"
   version="1.1"
   inkscape:version="0.48.3.1 r9886"
   sodipodi:docname="siaran.svg"
   style="fill:#000000">
  <metadata
     id="metadata73">
    <rdf:RDF>
      <cc:Work
         rdf:about="">
        <dc:format>image/svg+xml</dc:format>
        <dc:type
           rdf:resource="http://purl.org/dc/dcmitype/StillImage" />
      </cc:Work>
    </rdf:RDF>
  </metadata>
  <defs
     id="defs71" />
  <sodipodi:namedview
     pagecolor="#ffffff"
     bordercolor="#666666"
     borderopacity="1"
     objecttolerance="10"
     gridtolerance="10"
     guidetolerance="10"
     inkscape:pageopacity="0"
     inkscape:pageshadow="2"
     inkscape:window-width="1366"
     inkscape:window-height="744"
     id="namedview69"
     showgrid="false"
     inkscape:zoom="45.254834"
     inkscape:cx="3.2606325"
     inkscape:cy="5.1583779"
     inkscape:window-x="0"
     inkscape:window-y="24"
     inkscape:window-maximized="1"
     inkscape:current-layer="svg2" />
  <path
     d="m 8.1594556,1.3021731 c 0.8293036,0.8293206 1.2860362,1.9319705 1.2860362,3.1048054 0,1.1728343 -0.4567326,2.2754677 -1.2860362,3.1047872 -0.8293373,0.829303 -1.9319698,1.2860362 -3.1048043,1.2860362 -1.1728346,0 -2.2754671,-0.4567332 -3.1048045,-1.2860362 C 1.1205434,6.6824462 0.66381063,5.5798128 0.66381063,4.4069785 c 0,-1.1728349 0.45669897,-2.2754848 1.28603617,-3.1048054 0.8293374,-0.82931923 1.9319699,-1.28605244 3.1048045,-1.28605244 1.1728345,0 2.275467,0.45673321 3.1048043,1.28605244 z M 7.771346,7.1236736 C 8.3121232,6.5828799 8.6716911,5.9092633 8.8199333,5.1764221 8.7043821,5.3465321 8.5938572,5.4096343 8.525405,5.0288654 8.4549107,4.4080594 7.8847189,4.8046237 7.5261803,4.5841212 7.1488079,4.8384644 6.3006382,4.0896205 6.4447808,4.9342223 6.6671873,5.3151793 7.64547,4.4243875 7.1578463,5.2304494 6.8467652,5.7931631 6.0203269,7.0393729 6.1278341,7.6853585 6.1414041,8.6265075 5.1661891,7.8816087 4.8301864,7.5694127 4.6041601,6.9440611 4.7531581,5.8510329 4.1621442,5.544772 3.5206524,5.516921 2.970065,5.4586195 2.7214504,4.7414714 2.5718355,4.2283947 2.8806533,3.4645769 3.4304863,3.3466588 4.2353302,2.8409748 4.5228289,3.9388565 5.2776409,3.9592672 5.5120022,3.714049 6.1507997,3.636077 6.2037645,3.3611006 5.7085089,3.2737122 6.8321009,2.9446745 6.1563606,2.757514 5.7835675,2.8013517 5.5433754,3.1440628 5.7415633,3.4346474 5.0191498,3.6030947 4.9960119,2.3892155 4.3015904,2.772094 4.2839408,3.3774632 3.1676734,2.968361 3.9153683,2.8456049 4.1722655,2.7333638 3.4963515,2.4080987 3.8615078,2.4672036 4.0408796,2.4574609 4.6447577,2.2458439 4.4813369,2.1035698 4.8175956,1.8948332 5.1001702,2.6034567 5.4292944,2.0874279 5.6669145,1.6906571 5.3296427,1.617402 5.0318043,1.818523 4.8638891,1.6305058 5.3282724,1.2244221 5.7378723,1.0489423 5.874383,0.99045908 6.0047697,0.95858751 6.1044551,0.96760833 6.3107733,1.2059488 6.6923313,1.2472337 6.7122954,0.93894567 6.2013288,0.69424184 5.6379458,0.56497009 5.05465,0.56497009 c -0.8371915,0 -1.6334432,0.26605752 -2.2923958,0.75802021 0.1770909,0.081126 0.2776169,0.1821344 0.1070087,0.3112693 C 2.7367142,2.0292118 2.1988886,2.5593895 1.7267522,2.4843327 1.4816039,2.9070885 1.320154,3.3728437 1.2511347,3.8609988 1.6465863,3.9918324 1.7377642,4.2507718 1.6527942,4.337388 1.4512963,4.5130906 1.3274611,4.7621505 1.2636568,5.034794 1.3923796,5.8223666 1.762531,6.5482281 2.3379539,7.1236677 3.0636087,7.8493059 4.0284112,8.2489408 5.05465,8.2489408 c 1.0262212,0 1.99104,-0.3996349 2.7166948,-1.1252731 z"
     id="path67-2"
     inkscape:connector-curvature="0"
     style="fill:#008000" />
</svg>
