<?xml version="1.0" encoding="UTF-8" standalone="no"?>
<!-- Generator: IcoMoon.io -->

<svg
   xmlns:dc="http://purl.org/dc/elements/1.1/"
   xmlns:cc="http://creativecommons.org/ns#"
   xmlns:rdf="http://www.w3.org/1999/02/22-rdf-syntax-ns#"
   xmlns:svg="http://www.w3.org/2000/svg"
   xmlns="http://www.w3.org/2000/svg"
   xmlns:sodipodi="http://sodipodi.sourceforge.net/DTD/sodipodi-0.dtd"
   xmlns:inkscape="http://www.inkscape.org/namespaces/inkscape"
   width="10"
   height="8.8000002"
   viewBox="0 0 10 8.8000002"
   id="svg2"
   version="1.1"
   inkscape:version="0.48.3.1 r9886"
   sodipodi:docname="suarakita.svg"
   style="fill:#000000">
  <metadata
     id="metadata73">
    <rdf:RDF>
      <cc:Work
         rdf:about="">
        <dc:format>image/svg+xml</dc:format>
        <dc:type
           rdf:resource="http://purl.org/dc/dcmitype/StillImage" />
      </cc:Work>
    </rdf:RDF>
  </metadata>
  <defs
     id="defs71" />
  <sodipodi:namedview
     pagecolor="#ffffff"
     bordercolor="#666666"
     borderopacity="1"
     objecttolerance="10"
     gridtolerance="10"
     guidetolerance="10"
     inkscape:pageopacity="0"
     inkscape:pageshadow="2"
     inkscape:window-width="1366"
     inkscape:window-height="744"
     id="namedview69"
     showgrid="false"
     inkscape:zoom="65.258782"
     inkscape:cx="4.9055533"
     inkscape:cy="4.4636116"
     inkscape:window-x="0"
     inkscape:window-y="24"
     inkscape:window-maximized="1"
     inkscape:current-layer="svg2" />
  <g
     id="Layer_1"
     transform="matrix(0.27286774,0,0,0.27286774,0.6612035,0.0257476)" />
  <path
     inkscape:connector-curvature="0"
     style="fill:#4e4e50"
     d="M 3.9356164,3.3001605"
     id="path2992" />
  <path
     inkscape:connector-curvature="0"
     style="fill:#4e4e50"
     d="M 3.9356164,3.3001605"
     id="path2994" />
  <path
     style="fill:#0055d4;fill-opacity:1;stroke:none"
     d="M 4.5255278,8.423001 C 4.4876018,8.4199397 4.3703762,8.4037028 4.2650264,8.3869192 2.5742557,8.1175565 1.228294,6.802322 0.92508972,5.1232305 0.85529262,4.7367066 0.84537042,4.1868103 0.90160182,3.8215154 1.0371526,2.9409398 1.4302702,2.1618459 2.0498087,1.5459596 2.7019568,0.89765604 3.5593983,0.48759194 4.4674603,0.38973853 c 0.1914386,-0.0206296 0.6602295,-0.0206296 0.8516681,0 C 6.2352225,0.48845753 7.079493,0.8907134 7.729199,1.5380263 8.043687,1.8513556 8.270805,2.1557157 8.462563,2.5208071 8.778672,3.1226508 8.925982,3.7251604 8.924821,4.4114743 8.923721,5.0398538 8.802121,5.580121 8.53572,6.1397229 8.118436,7.0162695 7.379068,7.7270887 6.4866434,8.1096798 6.1271468,8.2637996 5.6735905,8.3815887 5.3005395,8.4177124 5.1454363,8.4327317 4.6850004,8.4358735 4.5255278,8.423001 l 0,0 z M 7.743485,6.9043419 c 0,-0.052928 -0.04899,-0.1946024 -0.09581,-0.2770749 C 7.586776,6.5200066 7.430543,6.3550759 7.276115,6.2350266 6.974961,6.000914 6.4402446,5.7349765 6.0912347,5.6457341 5.9561514,5.611193 5.9297858,5.5869826 5.9058845,5.4755346 5.8807999,5.3585695 5.8849649,5.3012811 5.9209185,5.2687435 5.9623083,5.2312863 6.0885376,5.0587175 6.1404727,4.96859 6.1915617,4.87993 6.2469348,4.7398968 6.2716618,4.6368231 c 0.013914,-0.058 0.027523,-0.081213 0.051945,-0.088605 C 6.4924759,4.497108 6.5696514,4.1406838 6.4510186,3.9597858 6.4175844,3.9088034 6.4163654,3.8981112 6.4291405,3.7678828 6.4468593,3.5872579 6.4333206,3.366034 6.3954968,3.2181442 6.3130934,2.8959502 6.1110183,2.698674 5.7719799,2.6094352 5.6777065,2.5846212 5.6039349,2.5777027 5.4296206,2.5773279 5.1826703,2.5767977 5.025086,2.6061339 4.8718513,2.6811656 4.5280957,2.8494862 4.3684055,3.2250452 4.4162874,3.7525592 c 0.013865,0.1527495 0.012752,0.1714342 -0.011868,0.1992069 -0.045486,0.051311 -0.065495,0.1226947 -0.065159,0.2324611 5.164e-4,0.1687158 0.076229,0.3267764 0.172628,0.3603811 0.033964,0.01184 0.047576,0.029683 0.060266,0.078993 0.057739,0.2243709 0.147894,0.3959188 0.3175096,0.604161 0.067585,0.082977 0.068649,0.08602 0.060694,0.1737478 C 4.9378943,5.5389573 4.9001149,5.6025525 4.8166763,5.6265388 4.5153279,5.7131687 4.2482891,5.8236551 3.9704199,5.9766745 3.4547801,6.2606316 3.1503237,6.5784659 3.1101506,6.8747443 l -0.00779,0.057463 2.3205632,0 c 2.2331442,0 2.3205632,-0.00105 2.3205632,-0.027866 z M 3.684207,5.7206785 C 3.8458661,5.6232829 4.1362304,5.4815651 4.3263209,5.4072825 4.4063867,5.3759948 4.4776556,5.3450736 4.484696,5.3385688 4.4917366,5.332064 4.4592645,5.2633227 4.4125358,5.1858102 4.365807,5.1082978 4.3058669,4.9885579 4.2793355,4.9197216 4.248636,4.8400713 4.2123727,4.7763636 4.179601,4.7445067 3.9838319,4.5542025 3.9063424,4.1517107 4.0169256,3.8995458 c 0.018605,-0.042427 0.024658,-0.1165181 0.026403,-0.3232081 0.002,-0.2365132 0.00704,-0.2862489 0.042731,-0.4213992 0.022257,-0.08428 0.072529,-0.2182283 0.111716,-0.2976633 C 4.3164362,2.6167418 4.5613266,2.3990589 4.8132248,2.3102034 L 4.894053,2.2816917 4.8844879,2.212636 C 4.8305497,1.8232279 4.5977326,1.5592586 4.2267174,1.4668524 4.068107,1.4273484 3.6872407,1.4315096 3.5263232,1.4745047 3.1966006,1.5626023 3.0021823,1.7531686 2.9062564,2.0822859 c -0.021439,0.073555 -0.02692,0.1532293 -0.027407,0.3984138 -5.118e-4,0.2574282 -0.00463,0.3126027 -0.025718,0.3447812 -0.070071,0.1069094 -0.075859,0.2800106 -0.01416,0.423434 0.036041,0.08378 0.097592,0.1524739 0.144441,0.1612039 0.021334,0.00398 0.037982,0.038011 0.06584,0.1346058 C 3.0960904,3.7071305 3.1828383,3.87472 3.2916728,4.0130605 3.4368397,4.1975829 3.427487,4.1745191 3.4068233,4.297028 3.3826233,4.4405001 3.3523533,4.4740803 3.2153593,4.5094277 2.7349619,4.6333804 2.0536056,5.0157282 1.7949865,5.3064798 1.666048,5.4514384 1.5680714,5.6478265 1.5680714,5.761317 l 0,0.036944 0.9936813,0 0.9936813,0 0.128773,-0.077582 z"
     id="path3274"
     inkscape:connector-curvature="0" />
</svg>
